<?xml version="1.0" encoding="utf-8"?>
<!-- Designed by Vexels.com - 2016 All Rights Reserved - https://vexels.com/terms-and-conditions/  -->

<svg version="1.1" id="Layer_1" xmlns="http://www.w3.org/2000/svg" xmlns:xlink="http://www.w3.org/1999/xlink" x="0px" y="0px"
	 width="1200px" height="1200px" viewBox="0 0 1200 1200" enable-background="new 0 0 1200 1200" xml:space="preserve">
<path fill="#000000" d="M1126.121,556.397L1126.121,556.397c3.764-9.024,5.783-18.577,5.783-28.656
	c0-55.261-59.686-98.6-135.849-98.6h-53.462v-159.73h56.181c3.945,0,7.974-0.22,11.918-0.655c1.226-0.175,2.455-0.44,3.769-0.615
	c2.63-0.35,5.259-0.745,7.709-1.27c1.58-0.35,2.895-0.745,4.384-1.185c2.28-0.615,4.559-1.225,6.834-1.97
	c1.494-0.44,2.895-1.01,4.299-1.624c2.276-0.785,4.295-1.71,6.394-2.63c1.405-0.61,2.894-1.315,4.209-1.97
	c2.015-1.01,3.944-2.149,5.959-3.244c1.315-0.875,2.63-1.62,3.855-2.41c1.93-1.27,3.859-2.63,5.699-3.985
	c1.14-0.88,2.455-1.71,3.505-2.63c1.93-1.535,3.68-3.199,5.524-4.779c0.96-0.965,2.015-1.71,2.979-2.674
	c2.275-2.365,4.469-4.774,6.569-7.139c0.265-0.44,0.615-0.704,0.88-1.14l0,0c15.688-18.932,25.151-43.253,25.151-69.764
	C1108.414,99.253,1059.246,50,998.776,50h-0.44h-64.77H266.079h-64.765C140.839,50,91.496,99.253,91.496,159.728
	c0,6.659,0.79,13.233,2.015,19.542c0,0,0,0.09,0,0.175l0,0c4.12,22.746,15.252,43.078,31.2,58.591
	c0.615,0.7,1.315,1.185,1.844,1.795c2.19,1.974,4.294,3.904,6.484,5.609c0.965,0.79,2.015,1.535,3.069,2.235
	c1.925,1.535,3.94,2.984,6.134,4.339c1.05,0.79,2.365,1.449,3.505,2.149c2.105,1.27,4.119,2.41,6.309,3.415
	c1.23,0.66,2.63,1.36,3.944,1.885c2.105,1.01,4.294,1.93,6.399,2.719c1.49,0.525,2.805,1.095,4.294,1.535
	c2.28,0.745,4.559,1.445,6.924,1.97c1.315,0.44,2.805,0.835,4.205,1.185c2.63,0.525,5.259,0.92,7.804,1.36
	c1.314,0.085,2.454,0.35,3.769,0.525c3.939,0.435,7.798,0.655,11.918,0.655h52.057v159.73h-49.517
	c-76.073,0-135.759,43.338-135.759,98.6c0,19.982,7.978,38.299,21.562,53.677c0.175,0.265,0.35,0.44,0.526,0.66
	c6.398,7.184,14.022,13.673,22.876,19.282c0.435,0.35,0.965,0.7,1.49,1.05c4.204,2.63,8.763,5.214,13.322,7.409
	c0.7,0.35,1.4,0.61,2.015,0.96c4.38,1.93,8.85,3.814,13.408,5.434c0.7,0.265,1.405,0.529,2.105,0.79
	c4.994,1.71,9.989,3.155,15.338,4.339c1.14,0.35,2.455,0.615,3.594,0.875c5.519,1.185,11.043,2.104,16.738,2.805v442.946
	c0,6.049,0.875,12.008,2.365,17.703c1.055,4.559,2.719,9.073,4.649,13.323c0.785,1.535,1.84,2.98,2.63,4.604
	c1.665,2.935,3.33,5.914,5.43,8.544c1.14,1.71,2.545,3.244,3.859,4.775c2.105,2.41,4.295,4.779,6.659,7.014
	c1.49,1.535,3.155,2.805,4.819,4.164c2.544,2.06,5.174,4.03,7.889,5.694c1.84,1.229,3.685,2.41,5.699,3.419
	c2.98,1.71,6.044,3.065,9.289,4.469c1.84,0.835,3.855,1.71,5.959,2.455c3.505,1.27,7.364,2.145,11.133,3.065
	c1.84,0.44,3.59,0.965,5.519,1.274c5.699,1.05,11.658,1.53,17.702,1.53c6.314,0,12.358-0.48,18.317-1.62
	c2.019-0.22,3.769-1.01,5.789-1.445c3.765-0.835,7.534-1.71,11.129-3.069c2.365-0.745,4.294-1.795,6.399-2.805
	c3.065-1.27,6.224-2.63,9.114-4.339c2.19-1.225,4.03-2.67,6.134-3.94c2.544-1.799,5.084-3.509,7.449-5.434
	c2.019-1.625,3.595-3.334,5.435-5.129c2.104-2.06,4.033-4.119,5.958-6.309c1.58-1.974,2.984-4.034,4.384-6.094
	c1.58-2.275,2.98-4.599,4.384-7.054c1.225-2.32,2.19-4.514,3.155-6.834c1.14-2.544,2.015-5.129,2.805-7.759
	c0.785-2.499,1.224-4.864,1.75-7.404c0.174-1.315,0.614-2.499,0.879-3.769c-0.265,0.085-0.44,0.26-0.53,0.35
	c0.354-3.069,1.055-6.134,1.055-9.379V626.471h463.543v441.497c0,3.375,0.525,6.619,1.05,9.948c-0.439-0.305-0.79-0.57-1.14-0.92
	c5.084,41.018,44.873,73.004,92.99,73.004c0.175,0,0.26,0,0.435,0c0.09,0,0.09,0,0.175,0c0.88,0,1.755-0.175,2.719-0.215
	c4.734-0.09,9.553-0.44,14.198-1.23c3.419-0.57,6.749-1.535,10.078-2.365c1.93-0.525,3.855-0.965,5.699-1.624
	c3.944-1.18,7.709-2.89,11.304-4.51c0.965-0.53,2.015-0.965,2.98-1.449c4.12-2.145,7.8-4.469,11.483-7.009
	c0.26-0.175,0.525-0.44,0.875-0.615c20.772-15.073,34.27-37.599,34.27-63.015V627.391c1.14-0.835,2.365-1.449,3.419-2.369h-3.419
	l0,0c5.784-0.7,11.478-1.71,17.002-2.89c1.14-0.265,2.191-0.44,3.33-0.705c5.259-1.355,10.604-2.805,15.602-4.51
	c0.7-0.265,1.225-0.44,1.84-0.704c4.819-1.71,9.554-3.59,14.023-5.694c0.525-0.265,1.051-0.525,1.49-0.79
	c4.734-2.28,9.289-4.774,13.583-7.579c0.44-0.265,0.965-0.615,1.49-0.92c8.764-5.744,16.393-12.228,22.876-19.457
	c0.175-0.265,0.44-0.53,0.7-0.88c6.484-7.319,11.658-15.513,15.253-24.231C1126.121,556.572,1126.121,556.487,1126.121,556.397z
	 M899.561,269.411v146.847c-86.417-48.028-284.401-49.123-300.439-49.123c-0.175,0-0.175,0-0.349,0c-0.526,0-0.79,0-0.79,0
	c-193.689,0-277.652,38.474-301.578,52.362V269.411H899.561z M296.405,427.871c0.44,0.175,1.14,0.305,1.755,0.48
	c0.79,0.265,1.49,0.525,2.28,0.79h-4.034V427.871z"/>
</svg>
